<svg xmlns="http://www.w3.org/2000/svg" viewBox="0 0 26 26" enable-background="new 0 0 26 26">
          <path style="text-indent:0;text-align:start;line-height:normal;text-transform:none;block-progression:tb;-inkscape-font-specification:Bitstream Vera Sans" d="M 8 0 C 8 0 0 11 0 18 C 0 22.4 3.6 26 8 26 C 12.4 26 16 22.4 16 18 C 16 11 8 0 8 0 z M 20 0 L 20 2 L 24 2 L 24 4 L 22 4 L 22 6 L 24 6 L 24 8 L 22 8 L 22 10 L 24 10 L 24 12 L 20 12 L 20 14 L 24 14 L 24 16 L 22 16 L 22 18 L 24 18 L 24 20 L 22 20 L 22 22 L 24 22 L 24 24 L 20 24 L 20 26 L 25 26 L 26 26 L 26 25 L 26 1 L 26 0 L 25 0 L 20 0 z M 8 3.59375 C 9.4563053 5.8655863 11.223288 8.980312 12.46875 12 L 5.90625 12 C 4.90625 14.4 4 17 4 19 C 4 20.936127 4.9403064 22.651051 6.375 23.75 C 3.857945 23.036957 2 20.737393 2 18 C 2 13.9 5.5 7.49375 8 3.59375 z"/>
        </svg>