<svg xmlns="http://www.w3.org/2000/svg" viewBox="0 0 50 50">
          <path style="line-height:normal;text-indent:0;text-align:start;text-decoration-line:none;text-decoration-style:solid;text-decoration-color:#000;text-transform:none;block-progression:tb;isolation:auto;mix-blend-mode:normal" d="M 22.5 6 C 16.71 6 12 10.71 12 16.5 C 12 16.665 12.003672 16.831 12.013672 17 L 12 17 C 7.589 17 4 20.589 4 25 C 4 27.957 5.6158125 30.537875 8.0078125 31.921875 C 8.0268125 31.198875 8.306 30.544156 8.75 30.035156 C 7.098 28.966156 6 27.111 6 25 C 6 21.691 8.691 19 12 19 C 12.3 19 12.622375 19.028891 12.984375 19.087891 L 14.367188 19.316406 L 14.132812 17.933594 C 14.043812 17.412594 14 16.944 14 16.5 C 14 11.813 17.813 8 22.5 8 C 26.701 8 30.226812 11.013063 30.882812 15.164062 L 31.099609 16.53125 L 32.328125 15.896484 C 33.480125 15.302484 34.716 15 36 15 C 40.411 15 44 18.589 44 23 C 44 27.013 41.026922 30.335297 37.169922 30.904297 C 37.754922 31.401297 38.2645 31.980047 38.6875 32.623047 C 42.8985 31.444047 46 27.582 46 23 C 46 17.486 41.514 13 36 13 C 34.822 13 33.677984 13.201516 32.583984 13.603516 C 31.317984 9.1295156 27.26 6 22.5 6 z M 24.375 20 C 22.465389 20 20.836122 21.198897 20.177734 22.873047 A 1.000123 1.000123 0 1 0 22.039062 23.605469 C 22.408675 22.665619 23.298611 22 24.375 22 C 25.734942 22 26.875 23.140058 26.875 24.5 C 26.875 25.859942 25.734942 27 24.375 27 L 13 27 A 1.0001 1.0001 0 1 0 13 29 L 24.375 29 A 1.0001 1.0001 0 0 0 24.59375 28.978516 C 26.958294 28.860448 28.875 26.891355 28.875 24.5 C 28.875 22.033942 26.841058 20 24.375 20 z M 11 31 A 1.0001 1.0001 0 1 0 11 33 L 32 33 C 34.219179 33 35.998047 34.778868 35.998047 36.998047 C 35.998047 39.214475 34.232399 40.90684 31.970703 40.996094 C 30.258559 41.035124 28.906785 40.050913 28.306641 38.378906 A 1.0002082 1.0002082 0 1 0 26.423828 39.054688 C 27.280895 41.442482 29.468785 43.060268 32.023438 42.998047 A 1.0001 1.0001 0 0 0 32.037109 42.998047 C 35.291378 42.875422 37.998047 40.298868 37.998047 36.998047 C 37.998048 33.732826 35.35757 31.063171 32.105469 31.005859 A 1.0001 1.0001 0 0 0 32 31 L 11 31 z M 9 35 A 1.0001 1.0001 0 1 0 9 37 L 18 37 C 19.087154 37 20 37.912846 20 39 C 20 40.087154 19.087154 41 18 41 C 17.207816 41 16.564959 40.57523 16.253906 39.953125 A 1.0001161 1.0001161 0 1 0 14.464844 40.847656 C 15.113791 42.145551 16.472184 43 18 43 C 20.192846 43 22 41.192846 22 39 C 22 36.882 20.309721 35.139037 18.21875 35.021484 A 1.0001 1.0001 0 0 0 18 35 L 9 35 z" font-weight="400" font-family="sans-serif" white-space="normal" overflow="visible"/>
        </svg>